<svg width="500" height="150" viewBox="0 0 535 180" fill="none" xmlns="http://www.w3.org/2000/svg">
<g filter="url(#filter0_d_1_2)">
<mask id="path-1-outside-1_1_2" maskUnits="userSpaceOnUse" x="3" y="5" width="530" height="170" fill="black">
<rect fill="white" x="3" y="5" width="530" height="170"/>
<path d="M72.4055 93.6L121.605 163H91.8055L49.0055 100.8L38.0055 163H15.2055L39.8055 24H62.6055L51.4055 87.4L116.605 24H145.205L72.4055 93.6ZM173.768 132.4C173.501 134.267 173.368 135.467 173.368 136C173.368 138.8 174.235 140.867 175.968 142.2C177.701 143.4 180.568 144 184.568 144H198.568L195.168 163H177.168C168.368 163 161.635 161.267 156.968 157.8C152.301 154.2 149.968 148.533 149.968 140.8C149.968 137.867 150.235 135.067 150.768 132.4L161.568 71.4H148.568L151.768 52.8H164.968L169.768 25.4H192.768L187.968 52.8H214.568L211.368 71.4H184.568L173.768 132.4ZM264.382 164.8C255.049 164.8 246.849 162.867 239.782 159C232.715 155.133 227.182 149.667 223.182 142.6C219.315 135.533 217.382 127.467 217.382 118.4C217.382 106 220.249 94.6667 225.982 84.4C231.849 74.1333 239.849 66 249.982 60C260.249 54 271.649 51 284.182 51C293.515 51 301.782 53 308.982 57C316.182 60.8667 321.782 66.3333 325.782 73.4C329.915 80.3333 331.982 88.4 331.982 97.6C331.982 110 328.982 121.333 322.982 131.6C316.982 141.867 308.849 150 298.582 156C288.315 161.867 276.915 164.8 264.382 164.8ZM267.182 145.6C274.782 145.6 281.715 143.467 287.982 139.2C294.382 134.8 299.382 129.067 302.982 122C306.582 114.8 308.382 107.133 308.382 99C308.382 89.8 305.782 82.7333 300.582 77.8C295.382 72.7333 288.849 70.2 280.982 70.2C273.249 70.2 266.315 72.4 260.182 76.8C254.182 81.0667 249.449 86.8667 245.982 94.2C242.649 101.4 240.982 109.133 240.982 117.4C240.982 126.333 243.382 133.267 248.182 138.2C253.115 143.133 259.449 145.6 267.182 145.6ZM391.921 164.8C382.588 164.8 374.388 162.867 367.321 159C360.254 155.133 354.721 149.667 350.721 142.6C346.854 135.533 344.921 127.467 344.921 118.4C344.921 106 347.788 94.6667 353.521 84.4C359.388 74.1333 367.388 66 377.521 60C387.788 54 399.188 51 411.721 51C421.054 51 429.321 53 436.521 57C443.721 60.8667 449.321 66.3333 453.321 73.4C457.454 80.3333 459.521 88.4 459.521 97.6C459.521 110 456.521 121.333 450.521 131.6C444.521 141.867 436.388 150 426.121 156C415.854 161.867 404.454 164.8 391.921 164.8ZM394.721 145.6C402.321 145.6 409.254 143.467 415.521 139.2C421.921 134.8 426.921 129.067 430.521 122C434.121 114.8 435.921 107.133 435.921 99C435.921 89.8 433.321 82.7333 428.121 77.8C422.921 72.7333 416.388 70.2 408.521 70.2C400.788 70.2 393.854 72.4 387.721 76.8C381.721 81.0667 376.988 86.8667 373.521 94.2C370.188 101.4 368.521 109.133 368.521 117.4C368.521 126.333 370.921 133.267 375.721 138.2C380.654 143.133 386.988 145.6 394.721 145.6ZM520.26 15L494.06 163H471.26L497.46 15H520.26Z"/>
</mask>
<path d="M72.4055 93.6L65.495 86.3719L59.2535 92.339L64.2475 99.3834L72.4055 93.6ZM121.605 163V173H140.953L129.763 157.217L121.605 163ZM91.8055 163L83.5674 168.669L86.5478 173H91.8055V163ZM49.0055 100.8L57.2436 95.1313L43.4085 75.0253L39.1583 99.0585L49.0055 100.8ZM38.0055 163V173H46.3922L47.8527 164.741L38.0055 163ZM15.2055 163L5.35849 161.257L3.28029 173H15.2055V163ZM39.8055 24V14H31.4199L29.9585 22.2573L39.8055 24ZM62.6055 24L72.453 25.7396L74.5269 14H62.6055V24ZM51.4055 87.4L41.5579 85.6604L36.1693 116.164L58.3769 94.5693L51.4055 87.4ZM116.605 24V14H112.545L109.634 16.8307L116.605 24ZM145.205 24L152.116 31.2281L170.136 14H145.205V24ZM64.2475 99.3834L113.448 168.783L129.763 157.217L80.5634 87.8166L64.2475 99.3834ZM121.605 153H91.8055V173H121.605V153ZM100.044 157.331L57.2436 95.1313L40.7674 106.469L83.5674 168.669L100.044 157.331ZM39.1583 99.0585L28.1583 161.259L47.8527 164.741L58.8527 102.541L39.1583 99.0585ZM38.0055 153H15.2055V173H38.0055V153ZM25.0524 164.743L49.6524 25.7427L29.9585 22.2573L5.35849 161.257L25.0524 164.743ZM39.8055 34H62.6055V14H39.8055V34ZM52.758 22.2604L41.5579 85.6604L61.253 89.1396L72.453 25.7396L52.758 22.2604ZM58.3769 94.5693L123.577 31.1693L109.634 16.8307L44.4341 80.2307L58.3769 94.5693ZM116.605 34H145.205V14H116.605V34ZM138.295 16.7718L65.495 86.3719L79.3159 100.828L152.116 31.2281L138.295 16.7718ZM173.768 132.4L163.921 130.657L163.892 130.821L163.868 130.986L173.768 132.4ZM175.968 142.2L169.871 150.126L170.07 150.279L170.276 150.422L175.968 142.2ZM198.568 144L208.412 145.761L210.516 134H198.568V144ZM195.168 163V173H203.537L205.012 164.761L195.168 163ZM156.968 157.8L150.86 165.718L150.932 165.773L151.005 165.827L156.968 157.8ZM150.768 132.4L160.574 134.361L160.596 134.252L160.615 134.143L150.768 132.4ZM161.568 71.4L171.415 73.1434L173.494 61.4H161.568V71.4ZM148.568 71.4L138.713 69.7045L136.701 81.4H148.568V71.4ZM151.768 52.8V42.8H143.341L141.913 51.1045L151.768 52.8ZM164.968 52.8V62.8H173.368L174.818 54.5255L164.968 52.8ZM169.768 25.4V15.4H161.368L159.918 23.6744L169.768 25.4ZM192.768 25.4L202.618 27.1255L204.672 15.4H192.768V25.4ZM187.968 52.8L178.118 51.0745L176.064 62.8H187.968V52.8ZM214.568 52.8L224.423 54.4955L226.435 42.8H214.568V52.8ZM211.368 71.4V81.4H219.794L221.223 73.0955L211.368 71.4ZM184.568 71.4V61.4H176.183L174.721 69.6566L184.568 71.4ZM163.868 130.986C163.631 132.649 163.368 134.611 163.368 136H183.368C183.368 136.231 183.356 136.34 183.364 136.242C183.369 136.172 183.382 136.032 183.407 135.804C183.457 135.348 183.542 134.695 183.667 133.814L163.868 130.986ZM163.368 136C163.368 140.951 165.008 146.386 169.871 150.126L182.065 134.274C182.31 134.462 182.556 134.702 182.774 134.988C182.992 135.272 183.142 135.549 183.24 135.783C183.431 136.238 183.368 136.392 183.368 136H163.368ZM170.276 150.422C174.617 153.427 180.087 154 184.568 154V134C183.025 134 182.032 133.881 181.467 133.762C180.866 133.636 181.091 133.584 181.66 133.978L170.276 150.422ZM184.568 154H198.568V134H184.568V154ZM188.724 142.239L185.324 161.239L205.012 164.761L208.412 145.761L188.724 142.239ZM195.168 153H177.168V173H195.168V153ZM177.168 153C169.472 153 165.191 151.451 162.931 149.773L151.005 165.827C158.078 171.082 167.264 173 177.168 173V153ZM163.076 149.882C161.59 148.736 159.968 146.483 159.968 140.8H139.968C139.968 150.583 143.013 159.664 150.86 165.718L163.076 149.882ZM159.968 140.8C159.968 138.474 160.179 136.334 160.574 134.361L140.962 130.439C140.29 133.8 139.968 137.259 139.968 140.8H159.968ZM160.615 134.143L171.415 73.1434L151.721 69.6566L140.921 130.657L160.615 134.143ZM161.568 61.4H148.568V81.4H161.568V61.4ZM158.423 73.0955L161.623 54.4955L141.913 51.1045L138.713 69.7045L158.423 73.0955ZM151.768 62.8H164.968V42.8H151.768V62.8ZM174.818 54.5255L179.618 27.1255L159.918 23.6744L155.118 51.0745L174.818 54.5255ZM169.768 35.4H192.768V15.4H169.768V35.4ZM182.918 23.6744L178.118 51.0745L197.818 54.5255L202.618 27.1255L182.918 23.6744ZM187.968 62.8H214.568V42.8H187.968V62.8ZM204.713 51.1045L201.513 69.7045L221.223 73.0955L224.423 54.4955L204.713 51.1045ZM211.368 61.4H184.568V81.4H211.368V61.4ZM174.721 69.6566L163.921 130.657L183.615 134.143L194.415 73.1434L174.721 69.6566ZM239.782 159L234.982 167.773L234.982 167.773L239.782 159ZM223.182 142.6L214.409 147.4L214.444 147.463L214.479 147.526L223.182 142.6ZM225.982 84.4L217.3 79.4386L217.275 79.4813L217.251 79.5243L225.982 84.4ZM249.982 60L244.936 51.3663L244.912 51.3807L244.887 51.3952L249.982 60ZM308.982 57L304.126 65.7416L304.188 65.7762L304.251 65.8099L308.982 57ZM325.782 73.4L317.079 78.326L317.135 78.424L317.193 78.5206L325.782 73.4ZM322.982 131.6L331.616 136.646L331.616 136.646L322.982 131.6ZM298.582 156L303.543 164.682L303.586 164.658L303.628 164.634L298.582 156ZM287.982 139.2L293.61 147.466L293.629 147.453L293.647 147.44L287.982 139.2ZM302.982 122L311.892 126.539L311.909 126.506L311.926 126.472L302.982 122ZM300.582 77.8L293.603 84.9623L293.651 85.0088L293.699 85.0546L300.582 77.8ZM260.182 76.8L265.977 84.9495L265.994 84.9375L266.011 84.9254L260.182 76.8ZM245.982 94.2L236.941 89.9262L236.924 89.9624L236.907 89.9988L245.982 94.2ZM248.182 138.2L241.015 145.174L241.063 145.223L241.111 145.271L248.182 138.2ZM264.382 154.8C256.458 154.8 249.959 153.169 244.582 150.227L234.982 167.773C243.739 172.564 253.639 174.8 264.382 174.8V154.8ZM244.582 150.227C239.163 147.262 234.975 143.134 231.885 137.674L214.479 147.526C219.389 156.199 226.268 163.005 234.982 167.773L244.582 150.227ZM231.955 137.8C228.99 132.382 227.382 126.003 227.382 118.4H207.382C207.382 128.93 209.641 138.685 214.409 147.4L231.955 137.8ZM227.382 118.4C227.382 107.61 229.858 97.9701 234.713 89.2757L217.251 79.5243C210.64 91.3632 207.382 104.389 207.382 118.4H227.382ZM234.664 89.3614C239.675 80.5931 246.441 73.7179 255.077 68.6047L244.887 51.3952C233.256 58.2821 224.022 67.6736 217.3 79.4386L234.664 89.3614ZM255.028 68.6337C263.68 63.5774 273.322 61 284.182 61V41C269.975 41 256.818 44.4226 244.936 51.3663L255.028 68.6337ZM284.182 61C292.046 61 298.6 62.6717 304.126 65.7416L313.838 48.2584C304.964 43.3283 294.985 41 284.182 41V61ZM304.251 65.8099C309.798 68.7891 314.016 72.9142 317.079 78.326L334.485 68.474C329.548 59.7524 322.566 52.9442 313.713 48.19L304.251 65.8099ZM317.193 78.5206C320.28 83.6987 321.982 89.9459 321.982 97.6H341.982C341.982 86.8541 339.551 76.9679 334.372 68.2793L317.193 78.5206ZM321.982 97.6C321.982 108.306 319.414 117.886 314.348 126.554L331.616 136.646C338.55 124.781 341.982 111.694 341.982 97.6H321.982ZM314.348 126.554C309.216 135.336 302.318 142.234 293.536 147.366L303.628 164.634C315.379 157.766 324.748 148.397 331.616 136.646L314.348 126.554ZM293.621 147.318C284.956 152.269 275.283 154.8 264.382 154.8V174.8C278.547 174.8 291.675 171.465 303.543 164.682L293.621 147.318ZM267.182 155.6C276.784 155.6 285.68 152.865 293.61 147.466L282.354 130.934C277.751 134.068 272.78 135.6 267.182 135.6V155.6ZM293.647 147.44C301.45 142.076 307.553 135.058 311.892 126.539L294.072 117.461C291.211 123.075 287.314 127.524 282.317 130.96L293.647 147.44ZM311.926 126.472C316.228 117.869 318.382 108.669 318.382 99H298.382C298.382 105.598 296.936 111.731 294.038 117.528L311.926 126.472ZM318.382 99C318.382 87.8776 315.181 77.866 307.465 70.5454L293.699 85.0546C296.383 87.6006 298.382 91.7223 298.382 99H318.382ZM307.561 70.6377C300.329 63.5911 291.217 60.2 280.982 60.2V80.2C286.481 80.2 290.435 81.8755 293.603 84.9623L307.561 70.6377ZM280.982 60.2C271.212 60.2 262.23 63.024 254.353 68.6746L266.011 84.9254C270.401 81.776 275.285 80.2 280.982 80.2V60.2ZM254.387 68.6504C246.852 74.0083 241.064 81.2057 236.941 89.9262L255.023 98.4738C257.834 92.5276 261.512 88.125 265.977 84.9495L254.387 68.6504ZM236.907 89.9988C232.939 98.5709 230.982 107.745 230.982 117.4H250.982C250.982 110.522 252.359 104.229 255.057 98.4012L236.907 89.9988ZM230.982 117.4C230.982 128.132 233.905 137.866 241.015 145.174L255.349 131.226C252.859 128.667 250.982 124.534 250.982 117.4H230.982ZM241.111 145.271C248.131 152.292 257.112 155.6 267.182 155.6V135.6C261.786 135.6 258.099 133.975 255.253 131.129L241.111 145.271ZM367.321 159L362.521 167.773L362.521 167.773L367.321 159ZM350.721 142.6L341.948 147.4L341.983 147.463L342.019 147.526L350.721 142.6ZM353.521 84.4L344.839 79.4386L344.814 79.4813L344.79 79.5243L353.521 84.4ZM377.521 60L372.475 51.3663L372.451 51.3807L372.426 51.3952L377.521 60ZM436.521 57L431.665 65.7416L431.727 65.7762L431.79 65.8099L436.521 57ZM453.321 73.4L444.619 78.326L444.674 78.424L444.732 78.5206L453.321 73.4ZM450.521 131.6L459.155 136.646L459.155 136.646L450.521 131.6ZM426.121 156L431.082 164.682L431.125 164.658L431.167 164.634L426.121 156ZM415.521 139.2L421.149 147.466L421.168 147.453L421.186 147.44L415.521 139.2ZM430.521 122L439.431 126.539L439.449 126.506L439.465 126.472L430.521 122ZM428.121 77.8L421.142 84.9623L421.19 85.0088L421.238 85.0546L428.121 77.8ZM387.721 76.8L393.516 84.9495L393.533 84.9375L393.55 84.9254L387.721 76.8ZM373.521 94.2L364.48 89.9262L364.463 89.9624L364.446 89.9988L373.521 94.2ZM375.721 138.2L368.554 145.174L368.602 145.223L368.65 145.271L375.721 138.2ZM391.921 154.8C383.997 154.8 377.498 153.169 372.121 150.227L362.521 167.773C371.278 172.564 381.178 174.8 391.921 174.8V154.8ZM372.121 150.227C366.702 147.262 362.514 143.134 359.424 137.674L342.019 147.526C346.928 156.199 353.807 163.005 362.521 167.773L372.121 150.227ZM359.494 137.8C356.529 132.382 354.921 126.003 354.921 118.4H334.921C334.921 128.93 337.18 138.685 341.948 147.4L359.494 137.8ZM354.921 118.4C354.921 107.61 357.397 97.9701 362.252 89.2757L344.79 79.5243C338.179 91.3632 334.921 104.389 334.921 118.4H354.921ZM362.204 89.3614C367.214 80.5931 373.98 73.7179 382.616 68.6047L372.426 51.3952C360.795 58.2821 351.562 67.6736 344.839 79.4386L362.204 89.3614ZM382.567 68.6337C391.219 63.5774 400.861 61 411.721 61V41C397.514 41 384.357 44.4226 372.475 51.3663L382.567 68.6337ZM411.721 61C419.585 61 426.139 62.6717 431.665 65.7416L441.378 48.2584C432.503 43.3283 422.524 41 411.721 41V61ZM431.79 65.8099C437.337 68.7891 441.555 72.9142 444.619 78.326L462.024 68.474C457.087 59.7524 450.105 52.9442 441.252 48.19L431.79 65.8099ZM444.732 78.5206C447.819 83.6987 449.521 89.9459 449.521 97.6H469.521C469.521 86.8541 467.09 76.9679 461.911 68.2793L444.732 78.5206ZM449.521 97.6C449.521 108.306 446.954 117.886 441.887 126.554L459.155 136.646C466.089 124.781 469.521 111.694 469.521 97.6H449.521ZM441.887 126.554C436.755 135.336 429.857 142.234 421.075 147.366L431.167 164.634C442.918 157.766 452.287 148.397 459.155 136.646L441.887 126.554ZM421.16 147.318C412.495 152.269 402.822 154.8 391.921 154.8V174.8C406.087 174.8 419.214 171.465 431.082 164.682L421.16 147.318ZM394.721 155.6C404.323 155.6 413.219 152.865 421.149 147.466L409.893 130.934C405.29 134.068 400.319 135.6 394.721 135.6V155.6ZM421.186 147.44C428.99 142.076 435.092 135.058 439.431 126.539L421.611 117.461C418.75 123.075 414.853 127.524 409.856 130.96L421.186 147.44ZM439.465 126.472C443.767 117.869 445.921 108.669 445.921 99H425.921C425.921 105.598 424.475 111.731 421.577 117.528L439.465 126.472ZM445.921 99C445.921 87.8776 442.72 77.866 435.004 70.5454L421.238 85.0546C423.922 87.6006 425.921 91.7223 425.921 99H445.921ZM435.1 70.6377C427.868 63.5911 418.756 60.2 408.521 60.2V80.2C414.02 80.2 417.974 81.8755 421.142 84.9623L435.1 70.6377ZM408.521 60.2C398.751 60.2 389.769 63.024 381.892 68.6746L393.55 84.9254C397.94 81.776 402.824 80.2 408.521 80.2V60.2ZM381.926 68.6504C374.391 74.0083 368.603 81.2057 364.48 89.9262L382.562 98.4738C385.373 92.5276 389.051 88.125 393.516 84.9495L381.926 68.6504ZM364.446 89.9988C360.478 98.5709 358.521 107.745 358.521 117.4H378.521C378.521 110.522 379.898 104.229 382.596 98.4012L364.446 89.9988ZM358.521 117.4C358.521 128.132 361.444 137.866 368.554 145.174L382.888 131.226C380.398 128.667 378.521 124.534 378.521 117.4H358.521ZM368.65 145.271C375.67 152.292 384.651 155.6 394.721 155.6V135.6C389.325 135.6 385.638 133.975 382.792 131.129L368.65 145.271ZM520.26 15L530.107 16.7432L532.186 5H520.26V15ZM494.06 163V173H502.445L503.907 164.743L494.06 163ZM471.26 163L461.413 161.257L459.334 173H471.26V163ZM497.46 15V5H489.075L487.613 13.2568L497.46 15ZM510.413 13.2568L484.213 161.257L503.907 164.743L530.107 16.7432L510.413 13.2568ZM494.06 153H471.26V173H494.06V153ZM481.107 164.743L507.307 16.7432L487.613 13.2568L461.413 161.257L481.107 164.743ZM497.46 25H520.26V5H497.46V25Z" fill="url(#paint0_linear_1_2)" mask="url(#path-1-outside-1_1_2)"/>
</g>
<defs>
<filter id="filter0_d_1_2" x="0.605474" y="0.4" width="534.255" height="179" filterUnits="userSpaceOnUse" color-interpolation-filters="sRGB">
<feFlood flood-opacity="0" result="BackgroundImageFix"/>
<feColorMatrix in="SourceAlpha" type="matrix" values="0 0 0 0 0 0 0 0 0 0 0 0 0 0 0 0 0 0 127 0" result="hardAlpha"/>
<feOffset/>
<feGaussianBlur stdDeviation="7.3"/>
<feColorMatrix type="matrix" values="0 0 0 0 0.8 0 0 0 0 0.207843 0 0 0 0 0.854902 0 0 0 1 0"/>
<feBlend mode="normal" in2="BackgroundImageFix" result="effect1_dropShadow_1_2"/>
<feBlend mode="normal" in="SourceGraphic" in2="effect1_dropShadow_1_2" result="shape"/>
</filter>
<linearGradient id="paint0_linear_1_2" x1="546" y1="93" x2="-16" y2="93" gradientUnits="userSpaceOnUse">
<stop stop-color="white"/>
<stop offset="1" stop-color="#D29CD8"/>
</linearGradient>
</defs>
</svg>
